<?xml version="1.0" encoding="UTF-8"?><svg id="Calque_2" xmlns="http://www.w3.org/2000/svg" viewBox="0 0 150 58"><defs><style>.cls-1{fill:#794aaf;}.cls-1,.cls-2{stroke-width:0px;}.cls-2{fill:#3a0174;}</style></defs><g id="Calque_1-2"><rect class="cls-2" width="150" height="58"/><path class="cls-1" d="M41.72,45.8c-.44.02-.89.05-1.35.1-.13-.2-.26-.4-.38-.61-.25-.42-.5-.94-.85-1.28-.08-.07-.21-.06-.26.03-.18.3-.14.76-.21,1.1-.07.33-.12.68-.16,1.02-.15.02-.3.05-.45.08-.2.03-2.02.41-1.33.93.47.35.97.67,1.48.97-.04.21-.08.42-.12.64-.09.44-.22.88-.27,1.33-.08.2-.15.42-.08.52.12.19.33.24.53.13.71-.4,1.39-.94,2.02-1.5.43.21.87.4,1.29.62.25.13.62.36.91.24.06-.03.1-.13.08-.19-.18-.47-.51-.88-.75-1.32-.09-.16-.18-.33-.26-.5.3-.28.6-.56.88-.84.26-.26.62-.65.74-.99.31-.86-1.06-.49-1.47-.48Z"/><path class="cls-1" d="M61.16,32.03c-.67-.44-1.37-.82-2.07-1.2.54-1.89,1.1-4.05.64-5.85-.1-.38-.45-.56-.8-.34-1.16.72-2.09,1.8-3.05,2.76-.37.37-.73.74-1.1,1.12-.54-.28-1.07-.56-1.6-.85-.9-.49-2.08-1.02-3.09-1.25-.41-.09-.65.35-.55.69.55,1.83,1.12,3.65,1.74,5.47-.71.9-1.45,1.74-2.26,2.58-.44.46-1,1.05-.85,1.74.14.63.83.62,1.33.55,1.09-.14,2.19-.3,3.27-.48.47,1.39,1.02,2.8,1.81,3.95.19.49.46.89.89,1.08,1.2.53,1.39-2.09,1.49-2.61.2-1.07.44-2.16.71-3.24.66-.08,1.32-.15,1.99-.22,1.6-.17,3.13-.71,4.69-1.06.45-.1.59-.58.26-.91-.9-.89-2.38-1.23-3.44-1.93Z"/><path class="cls-1" d="M132.61,55.85c.16-1.11.23-2.23.29-3.35,2.72-.44,5.8-1.02,7.81-2.67.43-.35.44-.91-.04-1.22-1.61-1.05-3.53-1.58-5.32-2.22-.68-.24-1.38-.49-2.07-.73.03-.85.07-1.69.12-2.54.09-1.44.05-3.25-.26-4.67-.13-.58-.84-.62-1.21-.28-2,1.79-3.97,3.6-5.91,5.47-1.56-.37-3.07-.8-4.63-1.33-.84-.29-1.94-.65-2.71-.04-.71.56-.29,1.42.1,2.02.84,1.3,1.68,2.6,2.57,3.87-1.48,1.43-2.94,2.96-3.93,4.65-.51.53-.86,1.12-.84,1.77.05,1.84,3.48.52,4.2.33,1.48-.39,3-.73,4.53-1.03.49.79.98,1.59,1.46,2.39.36.61.78,1.17,1.21,1.73h4.57c-.01-.74-.02-1.46.09-2.15Z"/><path class="cls-1" d="M132.21,3.37c.36-1.03.33-2.2.32-3.37h-4.57c.94,1.22,1.99,2.37,2.94,3.58.4.51,1.09.4,1.31-.21Z"/><path class="cls-1" d="M95.48,3.5c-.13.42-.38,1.03-.12,1.44.06.09.22.12.31.07.66-.39,1.2-1,1.8-1.49.23-.18.46-.36.69-.53.5.38,1.01.76,1.52,1.12.46.32,1.15.77,1.7.87,1.39.24.46-1.75.33-2.35-.14-.67-.31-1.34-.51-2.02.22-.21.44-.41.67-.6h-7.39c.51.48,1.04.94,1.59,1.38-.2.71-.38,1.42-.6,2.12Z"/><path class="cls-1" d="M103.75,56.23c.09-.14.04-.33-.12-.39-.51-.19-1.19,0-1.72-.02-.53-.02-1.06,0-1.59.02-.08-.22-.16-.45-.24-.67-.11-.29-1.16-2.97-1.77-1.78-.41.8-.76,1.65-1.08,2.51-.33,0-.67,0-1-.02-.69-.02-1.4-.1-2.1-.05-.33-.07-.68-.12-.82.02-.26.24-.28.57-.05.85.37.45.79.88,1.22,1.3h7.39c.05-.05.1-.09.15-.14.58-.49,1.29-1,1.72-1.63Z"/><path class="cls-1" d="M147.61,16.07c-.89-.07-1.76-.19-2.66-.35-.49-.09-1.12-.19-1.5.21-.35.37-.04.81.22,1.11.57.65,1.15,1.29,1.74,1.92-.7.91-1.37,1.88-1.78,2.9-.24.34-.38.69-.32,1.05.18,1.01,1.97,0,2.34-.17.78-.34,1.59-.65,2.41-.95.34.39.67.79,1.01,1.2.28.34.6.65.92.95v-10.85c-.81.99-1.61,1.98-2.39,2.99Z"/><path class="cls-1" d="M2.52,25.29c.18-.98-.24-2.08-.24-3.08,0-.63-.06-1.25-.12-1.87,1.46-.47,3.11-1.05,4.08-2.13.21-.23.17-.54-.13-.67-.97-.44-2.08-.58-3.12-.78-.4-.08-.8-.15-1.21-.23-.05-.47-.11-.94-.15-1.41-.07-.8-.24-1.8-.54-2.55-.12-.31-.51-.27-.69-.06-.14.17-.27.35-.42.52v10.85c.59.56,1.22,1.08,1.82,1.63.27.25.64.13.71-.23Z"/></g></svg>