<?xml version="1.0" encoding="UTF-8"?><svg id="Calque_1" xmlns="http://www.w3.org/2000/svg" viewBox="0 0 699.99 751.99"><defs><style>.cls-1{opacity:.1;}.cls-1,.cls-2{fill:#002863;}.cls-1,.cls-2,.cls-3,.cls-4,.cls-5,.cls-6,.cls-7,.cls-8,.cls-9,.cls-10,.cls-11,.cls-12,.cls-13,.cls-14,.cls-15,.cls-16{stroke-width:0px;}.cls-2{opacity:.15;}.cls-3{fill:#f983a3;}.cls-4{fill:#60c481;}.cls-5{fill:#53739b;}.cls-6{fill:#3a0174;}.cls-7{fill:#314768;}.cls-8{fill:#445f87;}.cls-9{fill:#3ec9f9;}.cls-10{fill:#a84242;}.cls-11{fill:#9f41f2;}.cls-12{fill:#fff;}.cls-13{fill:#fff18d;}.cls-14{fill:#feebf5;}.cls-15{fill:#ffb3e4;}.cls-16{fill:#ed6b6b;}</style></defs><g id="Licorne"><rect class="cls-7" x="49.77" y="443.37" width="158.04" height="285.07"/><path class="cls-7" d="m49.77,443.37l36.17-35.71h63.09s25.55,11.67,32.81,11.99,38.17,8.52,38.17,8.52l27.76,3.15-1.89,50.47-33.41,23.66-162.17-46.37-.52-15.71Z"/><polygon class="cls-7" points="213.7 725.55 211.18 607.65 246.43 582.74 246.43 693.14 214.01 728.44 213.7 725.55"/><rect class="cls-8" x="64.43" y="668.93" width="130.33" height="43.82" rx="7.69" ry="7.69"/><ellipse class="cls-5" cx="83.58" cy="690.48" rx="5.87" ry="5.78"/><ellipse class="cls-5" cx="105.42" cy="690.48" rx="5.87" ry="5.78"/><ellipse class="cls-4" cx="149.09" cy="690.48" rx="5.87" ry="5.78"/><ellipse class="cls-5" cx="170.93" cy="690.48" rx="5.87" ry="5.78"/><ellipse class="cls-10" cx="127.25" cy="690.48" rx="5.87" ry="5.78"/><rect class="cls-8" x="64.43" y="616.86" width="130.33" height="43.82" rx="7.69" ry="7.69"/><ellipse class="cls-5" cx="83.58" cy="638.41" rx="5.87" ry="5.78"/><ellipse class="cls-4" cx="105.42" cy="638.41" rx="5.87" ry="5.78"/><ellipse class="cls-5" cx="149.09" cy="638.41" rx="5.87" ry="5.78"/><ellipse class="cls-4" cx="170.93" cy="638.41" rx="5.87" ry="5.78"/><ellipse class="cls-5" cx="127.25" cy="638.41" rx="5.87" ry="5.78"/><rect class="cls-8" x="64.43" y="564.8" width="130.33" height="43.82" rx="7.69" ry="7.69"/><ellipse class="cls-5" cx="83.58" cy="586.35" rx="5.87" ry="5.78"/><ellipse class="cls-5" cx="105.42" cy="586.35" rx="5.87" ry="5.78"/><ellipse class="cls-4" cx="149.09" cy="586.35" rx="5.87" ry="5.78"/><ellipse class="cls-5" cx="170.93" cy="586.35" rx="5.87" ry="5.78"/><ellipse class="cls-10" cx="127.25" cy="586.35" rx="5.87" ry="5.78"/><rect class="cls-8" x="64.43" y="512.73" width="130.33" height="43.82" rx="7.69" ry="7.69"/><ellipse class="cls-5" cx="83.58" cy="534.28" rx="5.87" ry="5.78"/><ellipse class="cls-4" cx="105.42" cy="534.28" rx="5.87" ry="5.78"/><ellipse class="cls-4" cx="149.09" cy="534.28" rx="5.87" ry="5.78"/><ellipse class="cls-5" cx="170.93" cy="534.28" rx="5.87" ry="5.78"/><ellipse class="cls-4" cx="127.25" cy="534.28" rx="5.87" ry="5.78"/><rect class="cls-8" x="64.43" y="460.67" width="130.33" height="43.82" rx="7.69" ry="7.69"/><ellipse class="cls-4" cx="83.58" cy="482.22" rx="5.87" ry="5.78"/><ellipse class="cls-5" cx="105.42" cy="482.22" rx="5.87" ry="5.78"/><ellipse class="cls-10" cx="149.09" cy="482.22" rx="5.87" ry="5.78"/><ellipse class="cls-4" cx="170.93" cy="482.22" rx="5.87" ry="5.78"/><ellipse class="cls-5" cx="127.25" cy="482.22" rx="5.87" ry="5.78"/><path class="cls-12" d="m181.73,166.81s17.74-51.04,25.11-56.15c7.37-5.11,15.1,29.33,15.1,29.33l5.47,15.72s-28.78,14.05-45.68,11.09Z"/><path class="cls-12" d="m243.87,430.49c4,15.62,7.86,32.79.89,47.32-4.72,9.84-13.72,16.83-22.41,23.44-14.66,11.16-29.31,22.32-43.97,33.47-9.29,7.07-18.67,14.24-26.04,23.29-7.37,9.06-12.63,20.34-12.29,32.01.34,11.67,7.2,23.51,18.15,27.56,8.51,3.15,18.02,1.38,26.73-1.16,22.62-6.59,43.78-18.18,61.5-33.71-1.44,16.4-.34,33.49-.5,49.99-.04,4.6-.05,9.37,1.89,13.54,5.37,11.54,21.68,15,31.13,22.07,2.54,1.91,4.91,4.08,6.91,6.56,2.12,2.62,3.08,6.04,5.12,8.56,4.9,6.07,12.89,11.17,18.78,16.35,7.73,6.79,16.01,13.86,26.15,15.65s22.38-4.12,23.49-14.35c11.24,14.3,29.51,22.78,47.69,22.13,18.18-.65,35.8-10.4,46-25.46,4.89-7.22,8.17-15.89,7.25-24.56-.92-8.67-6.73-17.11-15.14-19.39,15.67-16.48,31.81-33.72,38.85-55.34,7.06-21.69,3.97-44.9-1.3-66.61-4.05-16.68-4.64-40.81-24.81-46.34-12.18-3.34-24.5,3.61-36.76,6.64-25.15,6.2-52.68-5.24-69.42-25.02-5.87-6.93-11.6-15.12-13.52-24.02-2.38-11.08-2.41-23.24-3.58-34.52-1.22-11.77-4.25-24.77-3.61-36.57.7-12.94-1.66-24.48,4.8-36.58,22.97-43,45.22-97.64,37.96-147.37-12.79,8.63-25.58,17.26-38.37,25.89-7.38,4.98-16,9.51-22.26,15.83-4.55,4.6-12.88,3.84-17.71-.56-4.81-4.38-9.83-7.45-16.29-9.23-15.84-4.38-31.55,1.15-47.29,1.96-17.33.88-34.65,1.89-51.97,2.83-8.98.49-28.26-.18-35.03,6.45-2.11,2.06-3.41,4.78-4.91,7.32-6.06,10.28-24.08,27.2-37.41,23.83-10.58-2.68-19.51-1.19-27.63,6.1-9.32,8.37-12.69,21.96-11.12,34.39,1.57,12.43,7.48,23.91,14.28,34.43,35.68,55.18,100.06,92.97,165.77,93.16Z"/><path class="cls-14" d="m132.93,395.79c13.26-7.92,19-24.33,20.23-39.73,2.89-35.99-14.66-72.93-44.4-93.42-10.96-7.55-26.58-.68-36.5,8.19-8.57,7.66-11.49,20.23-9.84,31.6,1.65,11.38,7.28,21.78,13.58,31.39,15.72,23.97,33.07,46.05,56.92,61.96Z"/><path class="cls-15" d="m450.35,696.53c1.18-6.73,1.69-14.8.64-20.98-1.24-7.32-6-14.55-13.18-16.42,8.44-7.11,17.77-12.41,26.97-18.55,4.75-3.17,5.89-1.15,8.46,2.8,2.69,4.13,5.4,8.14,7.64,12.54,1.96,3.87,2.88,8,5.07,11.76,1.48,2.55,3.66,4.58,5.14,7.22,7.42,13.27,8.81,29.86,3.38,44.1-7.65,20.03-30.86,34.39-48.25,15.94-4.62-4.9-7.85-10.91-11.02-16.85,1.05,1.95,13.91-15.6,14.44-17.92.26-1.15.51-2.36.73-3.63Z"/><path class="cls-15" d="m212.27,588.41c.66,7.53-.17,15.82-5.36,21.32-3.9,4.13-9.6,5.97-15.1,7.37-13.4,3.39-28.94,4.63-39.8-3.92-8.47-6.67-12.12-18.3-10.82-29.01,1.29-10.71,6.96-20.51,14.18-28.52,5.89-6.52,13.22-13.38,20.79-17.92,6.82-4.09,13.33,4.31,17.8,9.25,10.29,11.39,16.97,26.11,18.31,41.43Z"/><path class="cls-16" d="m492.24,540.23c4.11,1.41,8.59,1,12.9.44,13.6-1.78,27.4-5.08,38.66-12.92,11.22-7.82,19.05-19.53,26.1-31.25,7.05-11.72,13.72-23.91,23.44-33.53,9.72-9.62,23.25-16.49,36.8-14.6-9.08,4.43-11.57,17.71-5.93,26.09,7.17,10.65,23.42,12.72,34.16,6.8,7.67-4.22,13.9-13.79,16.23-22.12,2.6-9.28,1.09-19.96-1.51-29.08-3.66-12.79-13.77-26.37-25.28-33.12-5.6-3.29-10.87-5.72-17.43-5.15-6.49.56-12.19,3.38-18.31,5.18-5.64,1.66-10.93,4.35-15.65,7.84-9.16,6.77-15.99,16.33-20.59,26.67-2.93,6.59-7.95,12.69-10.48,19.26-2.58,6.69-3.14,14.45-5.58,21.32-4.94,13.89-12.28,26.94-21.65,38.33-5.31,6.45-11.72,12.64-19.59,15.81-3.43,1.38-7.14,1.5-10.48,2.82-3.89,1.54-7.21,3.16-11.53,3.54-2.98.26-6.71-1.09-9.47-.61-5.66.99,2.37,7.32,5.2,8.29Z"/><path class="cls-11" d="m508.57,513.87c6.36-6.27,10.39-14.46,14.3-22.49,8.81-18.08,17.62-36.15,26.43-54.23,9.28-19.03,18.87-38.51,34.26-53.05,15.39-14.54,38.05-23.32,58.13-16.59,12.87,4.32,24.53,13.29,30.8,25.65,3.46,6.82,4.14,13.79,5.54,21.14,1.85,9.71,2.21,19.6,1.65,29.46-5.58-18.6-15.53-36.77-31.78-47.4-3.18-2.08-7.46-4.83-11.15-5.77-3.63-.93-8.48.49-12.09,1.28-8.5,1.85-16.69,5.09-24.17,9.52-5.54,3.28-10.7,7.21-15.3,11.71-5.07,4.95-7.17,9.72-9.86,16.21-2.58,6.22-5.62,12.21-8.33,18.36-2.34,5.3-3.53,11.13-5.26,16.67-3.75,11.99-8.33,23.88-15.5,34.29-8.52,12.35-20.59,22.18-34.34,28.16-5.83,2.53-11.29,4.22-17.67,3.69-3.09-.26-10.68-1.47-6.89-6.06,2.18-2.63,7.6-2.34,10.62-3.52,3.97-1.56,7.6-4.03,10.63-7.01Z"/><path class="cls-9" d="m514.31,458.94c5.65-21.94,10.06-44.61,21.1-64.4,13.1-23.48,36.22-41.99,62.78-46.16,26.56-4.17,55.83,7.69,69.26,30.99-15.22-7.68-32.92-10.33-49.72-7.44-16.8,2.88-32.6,11.28-44.39,23.59-28.3,29.55-30.63,76.25-55.87,108.46-3.89,4.96-8.38,9.6-13.92,12.61-3.03,1.65-17.46,6.31-15.77.66.75-2.54,4.89-6.09,6.43-8.39,2.04-3.02,3.89-6.17,5.58-9.39,6.7-12.74,10.93-26.63,14.5-40.52Z"/><path class="cls-2" d="m204.69,234.98c31.25-2.06,60.11-1.74,89.37,10.23,6.83-8.24,13.28-15.45,24.72-16.36,7.97-.63,16,1.86,22.79,6.09,12.63,7.87,19.78,20.86,22.1,35.25,3.29-6.9,7.18-16.47,8.11-23.99.88-7.15,2.33-14.25,3.17-21.44,1.53-13.19,1.94-26.51,1.21-39.77-19.94,13.37-39.88,26.73-59.82,40.1-7.51,5.04-10.56,6.18-18.29,3.29-8.31-3.11-16.18-5.78-25.06-6.95-16.77-2.21-33.85-.62-50.52,1.75-26.11,3.71-51.79,8.19-78.11,3.79,18.03,9.83,40.45,9.33,60.32,8.02Z"/><path class="cls-3" d="m297.53,303.52c-1.94-.93-3.32-2.78-3.55-5.49-.57-6.67,3.36-14,6.19-19.82,1.96-4.02,4.02-8.01,6.37-11.81,6.6-10.67,16.18-19.5,25.67-27.61,4.03-3.44,13.98-11.5,19.19-6.21,3.48,3.53.91,9.6-.77,13.35-3.96,8.83-8.49,17.39-13.65,25.56-6.46,10.23-14.38,19.67-24.13,26.91-2.66,1.98-5.83,4.3-9.02,5.33-2.29.73-4.54.65-6.32-.2Z"/><path class="cls-6" d="m186.38,306.16c-2.45-8.41-.63-19.56,1.08-26.28,2.26-8.88,6.52-17.83,13.86-23.62,6.48-5.12,15.29-6.56,22.2-1.34,6.76,5.11,7.36,15.99,6.73,23.84-1.01,12.57-6.96,25.02-16.65,33.19-8.76,7.4-23.6,6.59-27.21-5.79Z"/><path class="cls-6" d="m118.44,264.76c-.35-1.11-.49-2.38-.34-3.8.49-4.69,7.72-9.78,10.94-13.17,4.71-4.93,9.41-9.86,14.12-14.8-.63.66,2.03,13.47,1.86,15.46-.61,7.43-4.16,14.78-9.94,19.61-5.16,4.31-14.61,3.13-16.65-3.3Z"/><path class="cls-6" d="m94.32,297.16c-.53.64-.95,1.18-1.22,1.57-3.3,4.71.03,10.54,5.69,6.89,3.14-2.02,5.61-5.04,6.99-8.51.64-1.61,1.03-3.43.47-5.07-1.86-5.44-8.79,1.37-11.92,5.12Z"/><path class="cls-6" d="m70.37,295.94c-.25,1.64-.83,2.91-1.79,3.45-1.58.88-3.33-.87-4.16-2.49-1.13-2.21-5.55-15.19-1.77-16.34,5.18-1.58,8.63,9.38,7.72,15.38Z"/><path class="cls-14" d="m323.07,582.16c7.36,15.86,12.83,34.28,13.11,51.89.2,12.42.03,30.08-12.18,37.26-6.91,4.06-15.56,3.07-23.5,1.96-17.62-2.48-37.13-6.02-47.82-20.26-6.18-8.23-8.29-18.83-8.92-29.1-.9-14.69.5-35.8,8.72-48.59,4.58-7.13,13.44-13.3,19.53-19.21,7.13-6.92,14.26-13.85,21.39-20.77,1.74-.79,22.02,32.83,23.71,35.62,2.2,3.64,4.18,7.38,5.96,11.21Z"/><path class="cls-12" d="m206.94,264.78c-.53,3.58,1.11,7.46,4.19,9.37,3.08,1.91,7.45,1.58,10.05-.94,2.62-2.54,3.08-6.88,1.39-10.12-4.01-7.69-14.23-7.66-15.62,1.69Z"/><path class="cls-12" d="m193.94,301.87c-.26,1.43.54,2.98,2.03,3.75,1.49.76,3.61.63,4.87-.38,1.27-1.02,1.49-2.75.68-4.05-1.94-3.08-6.9-3.06-7.58.67Z"/><path class="cls-15" d="m172.59,342.24c14.13-5.89,45.42-8.89,57.75,2.57,14.15,13.15,2.09,31.93-13.2,36.82-15.41,4.93-34.57,2.86-47.6-6.95-11.41-8.58-12.89-25.81,3.05-32.45Z"/><path class="cls-11" d="m372.67,405.35c3.18,13.62,6.82,27.4,14.26,39.23,7.44,11.84,19.35,21.62,33.23,23.25,13.89,1.63,29.21-6.81,32.46-20.41,1.16-4.88.67-10.36-2.36-14.36-3.03-3.99-8.91-5.94-13.35-3.61-4.36,2.29-6.3,7.78-10.65,10.09-4.54,2.42-10.44.48-13.98-3.25s-5.2-8.83-6.46-13.81c-8.77-34.75-3.01-71.51-7.75-107.04-3.41-25.57-12.35-50.39-26.02-72.27-5.03,14.31-10.26,28.56-15.09,42.93-3.82,11.36-1.15,20.46.28,32.2,1.79,14.77,4,29.49,6.6,44.14,2.39,13.43,8.81,29.39,8.81,42.9Z"/><path class="cls-11" d="m136.44,215.34c17.24,11.87,39.79,12.66,60.55,10,20.76-2.66,41.27-8.34,62.2-7.87,7.73.17,15.62,1.24,22.5,4.78,1.36.7,2.61,1.54,3.88,2.38,1.07.71,2.25,1.01,3.38,1.62,3.27,1.77,6.5,3.63,9.74,5.44,1.28.72,3.43,1.91,4.88,1,1.33-.83,2.63-2.48,3.88-3.51,3.1-2.55,6.27-5.01,9.51-7.37,6.49-4.72,13.27-9.04,20.28-12.93,2.74-1.52,5.51-2.97,8.31-4.36-4.2-12.23-19.09-17.28-32.02-16.9-12.93.38-25.72,4.46-38.59,3.22-15-1.44-29.1-10-44.12-8.79-12.34.99-23.17,8.45-35.15,11.6-17.57,4.61-36.61-.52-51.97-10.22-9.83-6.2-18.38-14.17-26.19-22.73-2.39-2.62-6.68-10.55-10.74-8.61-4.33,2.07-1.07,9.68-.25,12.92,4.83,19.12,13.1,38.76,29.91,50.33Z"/><path class="cls-9" d="m160.08,163.25c12.56,4.13,26.21,2.93,39.26.87,15.53-2.46,30.87-6.09,45.85-10.85,2.25,6.98,4.11,15.67-1.15,20.77-2.27,2.2-5.43,3.18-8.46,4.08-12.45,3.71-24.91,7.41-37.36,11.12-10.54,3.14-21.48,6.31-32.37,4.79-12.55-1.76-23.84-9.96-30.15-20.95-3.05-5.31-11.73-35.37-2.21-33.24,3.56.8,7.99,10.97,10.6,13.62,4.41,4.48,10.03,7.84,15.99,9.8Z"/><path class="cls-9" d="m375.62,200.82s49.98,57.77,54.03,111.14c4.05,53.38-.7,83.44-1.53,93.58-.83,10.13,3.15,26.35,3.15,26.35l-4.66,11.49s-11.4-2-14.32-7.08c-2.91-5.08-14.4-41.23-14.4-54.74s3.38-63.85-5.07-91.55c-8.45-27.7-20.94-52.97-20.94-52.97l3.73-36.22Z"/><path class="cls-9" d="m369.12,189.71c-6.23,6.45-13.77,13.43-22.7,12.57-2.77-.27-5.42-1.31-7.89-2.6-7.31-3.83-32.54-32.34-16.03-37.59,7.74-2.46,47.41,26.8,46.62,27.62Z"/><path class="cls-13" d="m283.9,26.78c.98-2.47,2-4.97,3.71-6.99,1.72-2.02,4.28-3.51,6.92-3.27,4.51.41,7.1,5.27,8.42,9.6,2.38,7.85,3.32,16.05,4.21,24.2,4.28,39.37,7.63,78.83,10.03,118.36.29,4.85.43,10.2-2.61,14-3.13,3.92-8.59,4.9-13.55,5.62-10.03,1.44-20.14,2.89-30.26,2.33-7.28-.4-25.14-1.62-25.35-11.53-.24-11.25,3.26-23.81,5.22-34.87,4.54-25.61,10.72-50.93,18.5-75.75,4.41-14.07,9.34-27.99,14.76-41.7Z"/><path class="cls-16" d="m334.71,410.62c.8,11.55,2.11,23.18,5.95,34.1,10.6,30.16,41.82,51.79,73.78,51.11,16.37-.35,33.02-6.42,44.05-18.53,11.03-12.11,15.45-30.58,8.94-45.6-6.52-15.02-24.79-24.59-40.31-19.39,1.88,4.93,3.76,9.86,5.64,14.78,9.88-1.75,19.84,6.93,20.79,16.93.95,9.99-5.99,19.77-15.26,23.62-9.27,3.85-20.21,2.32-29.01-2.51-8.8-4.83-15.65-12.65-20.91-21.2-12.59-20.45-16.63-44.86-20.43-68.57-4-25-8-49.99-12-74.99.82,4.96-14.79,19.52-17.35,24.38-3.36,6.39-2.63,13.58-3.25,20.71-1.88,21.67-2.13,43.45-.63,65.15Z"/><path class="cls-12" d="m47.94,481.52c2.79,5.38,9.31,9.8,13.17,14.3,5.19,6.06,9.91,12.54,14.11,19.37,12.25,19.95,26.05,46.36,18.7,70.68-3.63,12.02-15.74,22.02-27.52,18.96-28.9-7.51-37.07-41.48-40.14-68.34-2.36-20.6-1.66-45.72,5.59-65.38,5.86-15.89,13.14-31.21,21.73-45.7,11.13-18.77,24.79-36.45,42.66-48.38,2.36-1.57,5.05-3.1,7.81-2.62,2.04.35,3.75,1.74,5.37,3.08,10.51,8.75,21.02,17.49,31.53,26.24-16.07.42-32.14.84-48.21,1.26-3.18.08-6.4.17-9.44,1.15-5.9,1.89-10.34,6.83-14.48,11.57-6.72,7.69-13.54,15.52-17.89,24.86-4.75,10.19-8.25,27.56-3.24,38.39.09.19.18.37.27.56Z"/><path class="cls-15" d="m63.67,524.64c8.79-2.3,19.71-2.01,24.85,6.71,2.83,4.81,2.66,10.76,4.38,15.98,2.34,7.12,4.35,14.41,4.94,21.91.88,11.1-1.97,26.92-11.9,33.69-11.16,7.61-29.07,1.07-38.7-6.24-10.72-8.13-18.03-21.31-17.51-34.91.47-12.19,9.88-24.33,19.72-30.83,4.04-2.67,9.06-4.97,14.21-6.32Z"/><path class="cls-1" d="m77.8,391.29c-1.7,1.61-3.23,3.06-4.52,4.18-7.23,6.25-13.08,15.77-18.07,23.81-2.64,4.26-5.09,8.64-7.32,13.13-.84,1.69-3.7,10.9-5.14,11.42,6.36-2.28,11.74-6.62,16.98-10.89,10-8.14,23.66-24.35,36.28-26.11,15.95-2.23,32.98-1.43,49.08-2.15-3.59.16-14.32-11.3-17.38-13.71-5.95-4.69-11.8-10.41-18.24-14.38-9.69-5.98-22.95,6.47-31.66,14.71Z"/><path class="cls-1" d="m322.76,349.03c1.58,12.05-1.6,25.91-2.63,38.02-.97,11.39-2.62,22.73-3.12,34.16-.52,11.95-.19,24.08,2.2,35.83,7.62,37.52,45.34,58.89,80.27,66.29,24.87,5.27,51.24,3.24,75.02-5.76,2.9-1.1,3.53-4.42,3.75-7.52.22-3.1-1.13-6.06-2.45-8.87-4.18-8.9-8.36-17.81-12.54-26.71-14.44,13.44-34.24,20.94-53.96,20.45-19.72-.49-39.12-8.97-52.88-23.1-16-16.44-23.85-39.44-26.06-62.27-2.21-22.83.74-45.81,3.68-68.56-4.61-.56-11.88,3.45-11.27,8.05Z"/><path class="cls-1" d="m303.41,696.08c5.39,6.65,10.92,13.43,18.21,17.92,7.29,4.48,16.81,6.31,24.46,2.47,8.69-4.36,12.78-14.95,12.31-24.66-.47-9.71-4.62-18.81-8.7-27.64,1,2.17-29.02,9.3-31.79,9.63-11.56,1.37-22.36-.12-33.73-1.88,4.65,8.58,13.04,16.5,19.24,24.16Z"/><path class="cls-1" d="m246.9,608.34c-.34-7.87-.6-16.83,1.37-24.56,1.66-6.48,7.67-12.25,12-17.33,14.36-16.8,32.13-31.18,48.29-46.28.73,23.72-15.28,48.92-31.06,65.35-8.31,8.65-20.19,17.03-30.61,22.81Z"/><path class="cls-1" d="m209.99,110.59c5.48,15.34,10.96,30.69,16.44,46.03,1.73,4.84-41.32,11.85-45.59,11.3-.06-19.74,16.25-43.47,29.15-57.33Z"/><path class="cls-6" d="m677.73,389.68c-.08-.32-.2-.64-.37-.95-.02-.04-.05-.09-.08-.13-4.05-9.5-9.59-18.13-16.48-25.45-17.01-18.07-46.04-24.72-72.22-16.54-22.58,7.06-42.92,24.13-57.28,48.09-13.97,23.3-20.59,49.77-24.8,70.23-.24,1.18-.48,2.37-.72,3.55-1.79,8.85-3.64,18-7.17,26.2-4.06,9.45-9.2,15.86-15.66,19.53-6.41-17.67-14.1-30.87-17.57-36.41,7.1-8.18,10.63-18.07,10.5-29.49-.16-13.15-6.29-26.02-16.42-34.43-9.03-7.49-19-8.12-27.87-7.78.34-5.99,1.18-12,2.03-18.16.63-4.5,1.28-9.16,1.75-13.93,2-20.39,1.26-41.15-2.22-61.72-7.14-42.22-27.24-85.74-53.85-116.64.02-3.23-.02-6.47-.11-9.7-.04-1.43-.82-2.74-2.05-3.47-1.23-.73-2.75-.77-4.03-.12-1.11.57-2.22,1.15-3.33,1.73-15.68-13.43-32.13-21.97-50.16-26.02-1.09-16.42-2.2-33.36-2.92-50.01-1-23.4-4.56-46.75-8-69.33l-.67-4.37c-.26-1.68-1.23-7.62-2.99-13.29-2.51-8.09-5.58-12.28-9.66-13.21-2.48-.56-6.22-.09-9.93,5.36-4.09,6.01-6.58,12.76-8.98,19.28-.44,1.18-.87,2.36-1.31,3.53-5.83,15.4-11.04,31.25-15.5,47.13-5.88,20.93-10.55,42.25-13.97,63.71l-.13.1s.06.07.09.11c-.2,1.26-.4,2.53-.59,3.79-5.76-.64-10.65-.38-15.01.39l-15.84-45.74c-.51-1.48-1.81-2.55-3.37-2.77-1.55-.22-3.1.45-4,1.74-12.92,18.41-22.4,38.45-28.23,59.63-7.62-.29-14.97-2.32-20.98-7.24-6.75-5.52-12.91-13.14-17.35-21.48-.89-1.66-3.24-6.07-7.93-6.07-4.07,0-7.16,3.3-8.08,8.6-1.35,7.77-.53,15.63,1.37,23.36-.81-.92-1.62-1.84-2.42-2.75-2.69-3.08-5.48-6.26-8.34-9.33-.1-.11-.23-.25-.38-.41-3.97-4.36-8.21-8.48-12.46-6.83-1.37.53-3.66,2.07-3.66,6.46,0,9.6,3.2,23.23,8.35,35.57,4.79,11.46,10.81,21.01,19.29,30.05,4.11,4.38,6.77,5.52,14.23,11.57,0,0-2.1,7.22-2.97,9.5-3.41,8.93-12.87,16.79-20.45,20.63-5.53,2.8-12.13,2.41-19.13,1.99-9.22-.54-19.66-1.16-28.43,6.2-22.53,18.91-7.08,54.66,4.13,74.28,6.42,11.23,14.6,21.92,24.39,31.9-20.53,14.5-38.23,34.42-52.61,59.25-9.33,16.11-16.2,32.98-20.42,50.15-8.25,33.53-7.66,68.11,1.56,92.51,4.15,10.98,10.55,20.08,18.37,26.44v131.22c0,2.31,1.87,4.17,4.17,4.17h163.01c.26.05.52.08.79.08,1.09,0,2.17-.42,2.99-1.26l35.18-36.1v-39.34c5.69,4.13,14.6,9.76,25.9,14.17.96.37,1.92.73,2.88,1.07,4.7,8.28,28.78,48.23,55.87,48.28h.08c12.95,0,20.21-5.77,24.03-10.61.66-.84,1.24-1.67,1.75-2.49,4.51,6.25,10.21,10.99,17.06,14.16,8.61,3.99,17.27,5.97,25.85,5.97,8.96,0,17.83-2.16,26.48-6.45,2.6,4.1,7.43,11.09,13.61,17.27,4.55,4.55,12.61,8.45,21.74,8.45,2.02,0,4.09-.19,6.19-.61,8.08-1.61,19.24-7.22,26.55-24.83,12.97-31.27-23.87-80.99-27.99-86.4,7.7-10.17,13.44-21.2,17.15-33.02,5.41-17.24,6.51-36.12,3.31-56.2,1.02.04,2.05.06,3.07.06,15.2,0,30.52-4.32,44.62-12.64,14.39-8.49,27.19-20.85,37.03-35.74,2.09-3.16,4.12-6.41,6.09-9.55,6.04-9.63,11.74-18.73,19.31-26.42,6.06-6.15,13.47-10.28,21.24-12.05-3.47,4.21-5.44,9.34-5.51,14.55-.08,6.12,2.28,12.23,6.65,17.2,4.25,4.83,9.93,8.07,15.98,9.15,9.38,1.66,17.71-.32,24.77-5.88,7.75-6.1,13-15.94,16.26-26.42.2-.41.35-.86.41-1.33,2.15-7.32,3.36-14.9,3.78-21.68,1-16.11-1.58-31.74-7.28-45.58Zm-171.45,108.3c3.87-9,5.81-18.58,7.68-27.85.24-1.18.48-2.35.72-3.52,4.08-19.81,10.46-45.4,23.79-67.62,13.31-22.19,31.99-37.96,52.61-44.41,23.2-7.25,48.78-1.51,63.65,14.29.4.43.8.86,1.19,1.3-7.95-3.65-16.53-5.68-23.83-6.36-9.95-.93-20.12.74-30.24,4.97-9.15,3.82-17.97,9.7-25.5,17.01-15.63,15.15-25.23,34.8-31.85,50.23-2.67,6.22-5.2,12.6-7.65,18.77-4.57,11.52-9.29,23.42-15.03,34.51-3.66,7.07-8.83,15.97-16.37,22.07-2.84,2.3-7.57,5.45-13.29,6.63,5.71-4.66,10.37-11.28,14.13-20.02Zm-52.16-77.66c8.26,6.86,13.27,17.36,13.4,28.1.13,10.71-3.69,19.76-11.34,26.9-9.21,8.6-29.38,17.88-55.9,15.75-18.01-1.45-36.22-15.97-46.27-29.72-20.64-28.23-18.35-69.73-16.32-106.35.33-5.95.64-11.56.85-17.05.04-1.03.06-1.64.06-2.15,5.6-8.97,10.66-18.29,15.17-27.92,5.28,21.96,7.82,45.37,10.29,68.11.37,3.45.75,6.88,1.13,10.29,2.96,26.51,6.8,50.05,24.04,69.5,6.54,7.39,15.22,12.99,24.43,15.79,4.31,1.31,8.56,1.96,12.68,1.96,5.68,0,11.09-1.25,16.02-3.72,8.58-4.31,14.51-11.94,15.88-20.41,1.59-9.81-3.69-19.87-12.27-23.39-4.17-1.71-8.9-1.6-13.03.08-.86-3.92-1.3-7.78-1.44-11.62,9.44-.38,16.27.56,22.63,5.84Zm-75.21-211.94c22.69,29.15,39.65,67.76,46,105.32,3.35,19.84,4.07,39.86,2.14,59.51-.45,4.6-1.09,9.17-1.71,13.59-2.07,14.87-4.03,28.91.29,44.63l.27-.08c-1.54,1.99-2.52,4.26-2.89,6.64-5.82-3.06-11.84-9.16-14.66-15.26-2.97-6.42-3.54-14.07-4.09-21.47-.12-1.58-.24-3.21-.38-4.81-1.15-12.84-1.37-26.02-1.59-38.77-.22-12.98-.45-26.39-1.64-39.61-3.95-43.77-15.57-67.64-25.05-80.18,1.65-9.8,2.76-19.65,3.3-29.52Zm-5.52,41.16c7.71,12.87,15.8,34.28,18.96,69.3,1.17,12.91,1.39,26.17,1.61,39,.22,12.9.44,26.24,1.62,39.37.14,1.54.25,3.07.37,4.69.6,8.14,1.23,16.56,4.84,24.35,3.84,8.31,13.5,18.55,23.94,21.38,2.26,4.15,6.45,7.11,11.19,7.76,2.29.31,4.39-1.29,4.7-3.57.31-2.28-1.29-4.39-3.57-4.7-2.37-.32-4.58-2.11-5.39-4.36-1.3-3.61.47-6.03,1.65-7.15,2.48-2.37,6.38-3.14,9.49-1.86,5,2.05,8.17,8.35,7.2,14.33-.93,5.74-5.29,11.21-11.39,14.28-8.28,4.16-16.82,2.97-22.52,1.23-7.75-2.36-15.07-7.09-20.61-13.34-15.64-17.65-19.1-38.92-21.99-64.89-.38-3.4-.75-6.83-1.12-10.27-2.88-26.58-5.87-54.06-13.2-79.51,2.76-6.76,5.27-13.67,7.5-20.7,2.66-8.38,4.9-16.84,6.73-25.34Zm-11.49-61.12c-4.97,2.8-9.85,5.72-14.65,8.76-8.01-7.62-17.36-13.22-26.11-15.71-.3-4.89-.62-9.79-.94-14.65,14.82,3.73,28.54,10.83,41.7,21.6Zm-78.93-149.39c.45-1.19.89-2.39,1.34-3.6,2.23-6.05,4.54-12.31,8.05-17.47.6-.88,1.06-1.37,1.36-1.64.63.7,2.02,2.73,3.6,8.11,1.43,4.88,2.24,9.83,2.45,11.23l.67,4.37c1.61,10.56,3.18,20.85,4.5,31.08-9.53,7.47-23.24,9.4-34.57,5.15,3.76-12.55,7.98-25.03,12.59-37.23Zm-15.27,46.43c.11-.39.23-.78.34-1.17,4.68,1.69,9.68,2.55,14.81,2.55,1.49,0,2.98-.07,4.48-.22,6.79-.66,13.19-2.78,18.76-6.17,1,8.76,1.77,17.51,2.19,26.38-6.56,5.83-15.24,9.45-24,9.96-8,.47-16.24-1.64-23.09-5.84,1.97-8.55,4.14-17.06,6.51-25.5Zm-8.4,34.02c6.98,3.71,14.93,5.73,22.8,5.73.89,0,1.78-.03,2.67-.08,8.47-.5,16.89-3.39,23.99-8.14.48,9.61,1.07,19.25,1.68,28.8l-.15-.2c-8.6,6.7-20.5,9.73-31.82,8.11-8.81-1.26-17.69-3.29-23.93-9.2,1.39-8.37,2.99-16.72,4.76-25.03Zm-6.25,34.49c7.3,4.93,16.12,6.84,24.24,8,2.47.35,4.94.53,7.4.53,9.4,0,18.57-2.54,26.37-7.31.11,1.67.22,3.34.33,5,.46,6.9.93,13.99,1.37,21.04-19.4,8.39-43.31,7.84-62.99-.94.88-8.78,1.98-17.55,3.28-26.31Zm-43.98-37.75l12.87,37.18c-2.69.9-5.23,1.93-7.75,2.94-2.31.93-4.69,1.9-7.18,2.76-5.9,2.05-12.69,3.89-19.6,4.67,4.86-16.7,12.12-32.65,21.66-47.57Zm-76.56,23.17c.03-.2.07-.39.12-.56.09.16.19.33.29.53,4.95,9.29,11.85,17.82,19.44,24.02,13.25,10.82,33.09,12.07,57.4,3.61,2.68-.93,5.17-1.94,7.57-2.91,2.5-1.01,4.9-1.98,7.35-2.8l.05.15,3.43-1.19c4.52-1.17,9.46-1.73,15.71-1.07-.62,4.5-1.18,8.99-1.69,13.49-8.22.46-16.35,2.62-23.7,6.3l-1.5.75c-11.55,5.8-21.52,10.81-33.93,11.49-15.55.86-31.44-4.96-44.08-16.04-4.59-11.79-8.45-24.25-6.45-35.79Zm6.02,75.06c-12.25-9.48-19.86-23.52-24.08-33.64-4.54-10.88-6.74-20.92-7.45-27.79.4.42.85.89,1.34,1.43.18.2.33.36.45.49,2.77,2.97,5.51,6.1,8.16,9.13,4.34,4.97,8.84,10.1,13.74,14.84,14.67,14.17,33.92,21.69,52.82,20.65,14.14-.78,25.35-6.41,37.21-12.37l1.5-.75c4.15-2.08,8.59-3.59,13.14-4.5,13.83,8.96,30.74,13.57,47.49,13.57,11.53,0,22.99-2.2,33.29-6.66,7.56,1.45,16.33,6.26,23.89,13.02-14.68,9.85-22.75,15.19-35.68,27.3-6.54-3.71-4.96-2.63-14.16-7.71-9.41-5.19-30.28-10.68-52.19-6.44-1.76.34-3.53.68-5.29,1.03-18.46,3.6-37.56,7.31-54.09,7.91-17.85.64-30.96-2.47-40.08-9.53Zm-86.1,219.14c13.94-24.07,31.06-43.28,50.91-57.12,0,0,0,0,0,0,.3-.01.59-.05.87-.11,1.01.94,2.04,1.87,3.08,2.79,8.59,7.59,18.59,16.03,29.25,23.43h-49.7c-1.09,0-2.13.42-2.91,1.18l-32.56,31.7c.35-.63.7-1.25,1.06-1.87Zm157.8,5.93H59.17l29.37-28.59h61.23c5.63,3.18,11.34,5.89,17.05,7.88.07.03.15.05.23.07,17.33,6,33.67,10.14,50.85,12.77l-7.67,7.87Zm17.98-6.49c4.67.54,9.43.98,14.3,1.32v44.43c-8.87,6.48-17.66,13.09-26.35,19.84v-53.23l12.04-12.36Zm-183.49,153.94c-4.33-4.87-7.94-10.92-10.56-17.86-4.59-12.13-6.87-26.7-6.79-43.3.07-14.53,1.98-29.83,5.53-44.27,2.77-11.25,6.73-22.37,11.82-33.23v24.37c-1.47-.22-3.02.36-3.97,1.64-1.37,1.85-.98,4.47.87,5.84,1.06.78,2.09,1.59,3.1,2.42,2.97,2.43,5.74,5.05,8.35,7.81,12.65,13.4,21.36,30.16,29.25,45.34,11.3,21.74,14.78,39.01,10.35,51.33-2.66,7.4-10.16,13.25-20.6,13.25-3.25,0-6.79-.57-10.56-1.84-2.94-.99-5.76-2.39-8.44-4.17-3-1.99-5.8-4.46-8.35-7.34Zm163.1,138.57H53.07v-121.59c1.87.95,3.8,1.77,5.77,2.44,4.3,1.45,8.72,2.17,13.04,2.17,3.81,0,7.54-.57,11.01-1.7,8.43-2.76,14.69-8.79,17.64-16.97,5.32-14.81,1.79-33.78-10.8-58.01-9.34-17.98-19.8-38.08-36.66-53.14v-30.88h154.75v57.3c-13.81,10.93-27.36,22.17-40.56,33.69-12.36,10.78-23.91,21.69-29.31,36.62-2.85,7.88-3.25,17.03-1.1,25.08,2.4,8.97,7.73,15.99,15.02,19.79,5.86,3.05,12.4,4.57,19.57,4.57,8.15,0,17.11-1.97,26.82-5.91,3.29-1.34,6.49-2.83,9.56-4.41v110.94Zm34.7-32.34l-26.35,27.04v-110.33c9.8-5.94,17.44-12.08,21.12-15.22,1.75-1.49,3.49-3,5.22-4.51v103.02Zm93.09,19.23h-.06c-12.52-.02-25.13-12.07-33.5-22.17-4.2-5.07-7.77-10.17-10.46-14.29,6.78,1.53,13.57,2.31,20.3,2.31.09,0,.19,0,.28,0,12.66-.04,25.12-2.83,37.11-8.28.52,6.05,1.43,11.64,2.73,16.74,1.14,4.44,2.58,8.51,4.3,12.23-1.12,3.52-5.62,13.46-20.7,13.46Zm144.43-112.73c-6.78,21.63-21,40.48-42.26,56.03-1.86,1.36-2.27,3.97-.91,5.83.82,1.12,2.09,1.71,3.37,1.71.86,0,1.72-.26,2.46-.81,8.66-6.34,16.24-13.21,22.7-20.58,3.07,4.22,10.43,14.75,16.79,27.35,7.35,14.56,14.86,34.9,8.94,49.19-4.66,11.25-11.74,18.11-20.46,19.84-8.13,1.62-16.41-1.57-20.39-5.56-5.44-5.44-9.82-11.72-12.25-15.51,2.68-1.74,5.34-3.68,7.97-5.84,15.65-12.89,24.52-28.62,24.89-29.29,1.12-2.01.4-4.55-1.61-5.68-2.01-1.12-4.55-.4-5.68,1.61-.08.15-8.59,15.18-23.08,27.05-3.35,2.74-6.72,5.09-10.13,7.05-.04.02-.09.04-.13.07-.1.06-.19.12-.28.18-15.57,8.83-31.68,9.49-48.02,1.92-10.73-4.97-18.08-14.91-21.84-29.54-3.15-12.25-3.83-27.73-2.01-46.01,3.14-31.54,12.74-60.63,12.83-60.92.73-2.19-.45-4.55-2.64-5.28-2.19-.73-4.55.45-5.28,2.64-.41,1.22-9.96,30.15-13.21,62.61-.83,8.27-1.16,16.02-1.01,23.22-11.77,5.87-24.03,8.88-36.48,8.95-10.63.06-21.49-2.02-32.23-6.18-14.96-5.79-25.62-14.08-29.21-17.09v-63.95c21.39-19.49,41.31-40.69,59.36-63.22,1.44-1.8,1.15-4.43-.65-5.87-1.8-1.44-4.43-1.15-5.87.65-21.49,26.83-45.66,51.74-71.83,74.07-6.42,5.48-13.85,10.87-21.69,15.45-.2.1-.39.2-.57.33-12.55,7.25-26.1,12.38-38.23,12.38-5.6,0-10.9-1.09-15.66-3.57-11.67-6.07-14.24-22.7-9.93-34.63,4.72-13.06,15.44-23.14,26.94-33.17,31.85-27.77,65.65-53.97,100.48-77.88,1.9-1.31,2.38-3.9,1.08-5.8-1.31-1.9-3.9-2.38-5.8-1.08-5.91,4.06-11.79,8.19-17.64,12.37v-37.91c1.85.09,3.72.16,5.61.23.05,0,.09,0,.14,0,2.24,0,4.1-1.78,4.17-4.04.08-2.3-1.73-4.23-4.04-4.31-32.18-1.06-58.22-5.78-87.1-15.78-.06-.02-.12-.04-.18-.06-4.29-1.51-9.48-3.67-16.15-7.5-.25-.19-.52-.35-.82-.47-9.64-5.62-22.3-14.68-39.66-30.02-5.84-5.16-11.19-10.55-16.02-16.14,3.06.73,6.31,1.15,9.72,1.24.43.01.86.02,1.28.02,10.21,0,20.78-3,28.5-8.12,1.92-1.27,2.45-3.86,1.17-5.79-1.27-1.92-3.87-2.45-5.79-1.17-6.58,4.36-16.14,6.93-24.97,6.71-9.82-.24-17.86-3.78-22.63-9.95-.07-.08-.14-.16-.21-.24-1.12-1.77-2.2-3.54-3.22-5.34-4.85-8.49-11.15-21.25-13.56-33.77-2.6-13.5-.07-23.59,7.55-29.97,6.23-5.23,13.8-4.78,22.57-4.26,7.79.46,15.85.94,23.39-2.88,6.9-3.49,13.3-8.7,19.55-15.9,4.63-5.34,5.49-10.44,8.21-19.24,11.74,2.87,24.91,3.34,36.95,3.14,13.89-.23,25.55-2.05,35.06-4.39,24.15-5.93,43.57-10.84,80.15,6.54-1.19-.44-12.21,12.61-13.6,14.06-1.99,2.08-4.67,3.92-2.25,6.71,1.59,1.83,4.51,1.85,6.16.11,23.37-24.61,50.29-45.21,80.1-61.31.11,26.74-4,53.42-12.25,79.4-6.82,21.5-16.23,41.74-28.06,60.43h-.41c0,.24,0,.45,0,.64-3.55,5.57-7.31,11.01-11.29,16.29-1.39,1.84-1.02,4.46.82,5.85.75.57,1.63.84,2.51.84,1.27,0,2.52-.57,3.34-1.66,1.37-1.82,2.72-3.66,4.04-5.52-.09,1.75-.19,3.52-.29,5.32-1,18.08-2.13,38.58-.26,57.89,2.18,22.49,8.13,40.11,18.18,53.85,6.02,8.23,14.07,15.96,22.67,21.76,9.87,6.66,20.13,10.58,29.67,11.35,2.53.2,5.11.3,7.71.3,8.47,0,17.16-1.07,25.12-3.12,10.55-2.72,19.72-7.13,26.76-12.83,5.35,8.85,17.7,31.39,23.01,58.84,3.98,20.58,3.24,39.8-2.19,57.14Zm192.91-144.23c-2.78,9.09-7.17,17.64-13.54,22.65-5.19,4.08-11.13,5.46-18.16,4.22-8.8-1.56-15.86-9.63-15.74-18.01.06-4.12,2.14-8.37,5.57-11.39,2.22-1.96,4.8-3.2,7.4-3.62.43.02.86-.03,1.26-.14.65-.04,1.31-.02,1.95.05,3.79.43,7.44,3.13,9.54,7.05,1.92,3.59,2.15,7.53.6,10.55-1.05,2.05-.24,4.57,1.81,5.62,2.05,1.05,4.57.24,5.62-1.81,2.8-5.46,2.55-12.3-.67-18.3-3.42-6.39-9.39-10.65-15.96-11.4-1.35-.15-2.72-.16-4.09-.03-15.33-2.46-31.37,3.08-43.06,14.95-8.21,8.33-14.43,18.25-20.44,27.84-1.94,3.1-3.95,6.31-5.99,9.38-9.14,13.84-21,25.3-34.3,33.15-14.25,8.41-29.81,12.32-45.03,11.33-.09-.42-.18-.83-.27-1.24.86.05,1.71.08,2.57.08,9.18,0,18.47-2.7,27.71-8.05,11.83-6.86,21.06-16.7,26.72-23.74,11.33-14.11,17.41-30.81,23.29-46.96,5.9-16.22,11.48-31.54,21.93-44.44,8.27-10.21,21.34-17.19,34.1-18.2,7.31-.58,18,.5,27.39,8.93,14.73,13.24,20.49,28.21,19.78,51.54Zm-14.2-57.75c-9.17-8.24-20.8-12.06-33.63-11.04-15.19,1.2-30.12,9.15-39.93,21.27-11.33,13.99-17.41,30.69-23.29,46.84-5.91,16.23-11.48,31.55-21.95,44.59-5.21,6.49-13.68,15.54-24.39,21.75-9.55,5.54-19.05,7.76-28.25,6.63-.09-.32-.18-.64-.27-.95.21,0,.42,0,.62,0,7.78,0,15.75-3.07,23.04-8.96,8.75-7.08,14.5-16.93,18.53-24.73,5.93-11.46,10.73-23.57,15.37-35.27,2.42-6.11,4.93-12.44,7.56-18.55,6.31-14.71,15.43-33.41,29.99-47.53,14.29-13.85,32.66-21.2,49.15-19.66,14.26,1.33,31.61,8.1,38.51,20.24,3.98,9.5,6.34,19.96,6.92,30.87-3.65-9.67-9.55-17.91-17.99-25.5Z"/></g></svg>