<?xml version="1.0" encoding="UTF-8"?><svg id="Calque_1" xmlns="http://www.w3.org/2000/svg" viewBox="0 0 900 900"><defs><style>.cls-1{fill:#794aaf;}.cls-1,.cls-2{stroke-width:0px;}.cls-2{fill:#3a0174;}</style></defs><rect class="cls-2" x="1.47" y="-2.26" width="902.26" height="902.26"/><path class="cls-1" d="m473.19,747.17c-1.4-1.74-3.9-2.63-5.61-4.07-1.07-.91-2.22-1.72-3.38-2.52,1.32-3.19,2.74-6.85,2.31-10.08-.09-.69-.67-1.07-1.33-.76-2.17,1.02-4.02,2.72-5.88,4.21-.71.57-1.43,1.14-2.15,1.73-.88-.59-1.76-1.19-2.63-1.8-1.47-1.05-3.43-2.21-5.15-2.8-.7-.24-1.21.48-1.1,1.1.59,3.31,1.22,6.61,1.92,9.9-1.43,1.42-2.88,2.74-4.47,4.05-.86.71-1.97,1.63-1.83,2.86.12,1.13,1.32,1.25,2.22,1.23,1.94-.03,3.88-.08,5.81-.18.54,2.52,1.21,5.09,2.36,7.26.23.89.63,1.65,1.33,2.06,1.99,1.16,2.86-3.37,3.13-4.25.56-1.83,1.21-3.67,1.89-5.51,1.17,0,2.34,0,3.52.02,2.83.04,5.6-.6,8.4-.91.81-.09,1.15-.9.64-1.54Z"/><path class="cls-1" d="m243.31,288.39c.41-2.19-.53-4.68-.54-6.91,0-1.41-.13-2.8-.27-4.2,3.29-1.06,6.99-2.35,9.17-4.78.46-.52.38-1.21-.28-1.51-2.19-.99-4.67-1.3-7.02-1.75-.89-.17-1.8-.35-2.71-.51-.12-1.06-.24-2.11-.33-3.17-.16-1.8-.55-4.04-1.21-5.73-.27-.69-1.15-.61-1.55-.12-2.14,2.6-4.24,5.21-6.29,7.88-2.01-.17-3.95-.42-5.98-.78-1.1-.2-2.52-.44-3.37.46-.78.82-.09,1.81.5,2.49,1.28,1.46,2.57,2.9,3.91,4.31-1.57,2.05-3.09,4.22-4,6.51-.53.75-.85,1.55-.71,2.35.4,2.27,4.41,0,5.26-.38,1.76-.76,3.58-1.46,5.42-2.13.76.89,1.51,1.78,2.26,2.69,1.81,2.18,4.09,3.88,6.14,5.8.6.56,1.43.3,1.59-.51Z"/><path class="cls-1" d="m796.14,820.97c1.55-.88,2.57-2.74,3.92-3.9.85-.73,1.64-1.53,2.41-2.34,2.35,1.45,5.04,3.04,7.65,3.11.55.01.93-.39.77-.95-.53-1.84-1.63-3.51-2.56-5.17-.36-.63-.72-1.27-1.09-1.91.58-.62,1.16-1.24,1.76-1.84,1.01-1.03,2.18-2.42,2.86-3.7.28-.52-.23-1.01-.72-1.01-2.68.04-5.36.11-8.05.25-.94-1.31-1.79-2.62-2.62-4.04-.45-.77-1.04-1.76-2.02-1.81-.9-.05-1.15.88-1.25,1.59-.22,1.53-.44,3.06-.6,4.6-2.06.11-4.16.3-6.02.93-.73.07-1.38.28-1.8.78-1.17,1.42,2.29,2.68,2.95,3.01,1.37.68,2.74,1.42,4.1,2.19-.15.92-.3,1.84-.47,2.77-.39,2.22-.24,4.49-.36,6.73-.03.65.56,1.02,1.13.7Z"/><path class="cls-1" d="m604.64,170.75c-1.28-4.67-6.09,1.13-7.79,2.41-1.86,1.42-3.71,2.94-5.52,4.53-1.18-.47-2.36-.94-3.51-1.47-2.36-1.08-5-2.53-7.58-2.95-.56-.09-1.07.37-1.02.94.16,1.85,1.72,3.71,2.45,5.38.72,1.66,1.55,3.28,2.4,4.89-.58.57-1.15,1.14-1.72,1.71-.75.76-7.5,7.95-2.92,8.11,3.1.11,6.24-.05,9.38-.32.48,1.04.95,2.08,1.41,3.12.94,2.16,1.74,4.49,2.91,6.58.25,1.12.63,2.26,1.25,2.52,1.13.46,2.17.03,2.7-1.08,1.86-3.9,3.13-8.29,4.18-12.64,2.49-.4,4.97-.92,7.46-1.25,1.51-.2,3.77-.32,4.65-1.74.19-.31.05-.86-.25-1.06-2.18-1.48-4.87-2.26-7.26-3.4-.9-.43-1.78-.89-2.65-1.37.45-2.11.87-4.23,1.24-6.35.32-1.88.7-4.68.19-6.55Z"/><path class="cls-1" d="m509.81,800.37c1.77-.74-.75-2.34-1.35-2.94-.65-.66-1.35-1.31-2.06-1.94.12-.49.25-.98.4-1.46.3-.98.74-2.1.77-3.13,0-.22-.2-.4-.42-.35-.72.16-1.37.87-1.99,1.24-.62.37-1.21.78-1.8,1.19-.25-.2-.51-.4-.76-.59-.34-.26-3.51-2.55-3.34-.73.12,1.22.34,2.45.61,3.67-.38.24-.77.48-1.16.71-.8.48-1.68.92-2.44,1.48-.43.15-.86.36-.93.62-.12.47.1.85.56,1.01,1.63.53,3.42.81,5.19,1,.28.96.61,1.91.87,2.87.16.58.32,1.47.92,1.74.13.06.34-.02.4-.15.47-.93.64-2.03.97-3.03.12-.38.26-.74.4-1.11.85.07,1.71.13,2.56.16.76.03,1.88.04,2.59-.26Z"/><path class="cls-1" d="m154.84,174.47c1.12-3.56,2.37-7.08,3.48-10.64,1.84.27,3.7.49,5.59.6,2.04.11,3.85-.67,2.45-2.88-.89-1.4-2.43-2.7-3.68-3.75-.76-.64-1.48-1.32-2.19-2,.49-2.01,1-4,1.65-6.01.44-1.33,1.15-3.14.77-4.55-.08-.31-.43-.48-.72-.46-1.38.07-2.9,1.48-4.07,2.13-1.74.97-3.5,1.89-5.26,2.82-.34-.25-.67-.49-1.01-.74-1.67-1.26-3.24-2.76-5.17-3.62-2.79-1.24-2.15,2.75-1.84,4.01.34,1.36.82,2.68,1.35,3.98-2.49,1.38-4.97,2.77-7.46,4.14-.77.23-1.42.53-2,1.19-.31.35-.17.99.27,1.16,3.93,1.51,8.18,2.04,12.33,2.59.21.03.41.06.62.09.1.32.19.65.27.98.84,3.39.81,8.57,3.49,11.23.31.31,1,.17,1.13-.26Z"/><path class="cls-1" d="m532.69,750.07c-.5-2-2.1-4.1-3.65-6,1.59-1.61,3.28-3.42,3.37-5.4.02-.42-.38-.81-.79-.79-2.02.07-4.17.59-6.3,1.19-1.36-2.08-2.81-4.25-4.71-5.55-.31-.22-.69-.09-.95.12-.72.57-.54,1.34-.79,2.18-.48,1.64-.91,3.34-1.33,5.02-.04.17-.08.34-.12.51-1.45.44-2.9.87-4.39,1.16-1.32.26-2.55.69-3.51,1.65-.19.19-.29.51-.2.77.35,1.12,1.46,1.43,2.54,1.63,1.41.25,2.9.66,4.37,1.09-.12.72-.23,1.45-.35,2.17-.4,1.25-1.19,3.44-.85,4.61.59,2.08,2.37,1.45,3.69.41,1.88-1.48,3.73-3.28,5.43-5.15.94.18,1.88.36,2.78.54,1.52.31,3.67,1.3,5.21.83.42-.13.66-.55.55-.97Z"/><path class="cls-1" d="m164.45,516.58c-2.58,0-5.27-.58-7.93-1.06-.48-2.04-.97-4.12-1.63-6.07-.41-1.2-.3-2.74-1.61-3.36-.39-.18-.95-.14-1.16.3-1.29,2.73-2.47,5.53-3.59,8.36-3.17-.04-6.39.08-9.52-.02-.51-.02-.99.55-.8,1.05.5,1.34,1.78,2.19,2.86,3.07,1.26,1.03,2.54,2.03,3.83,3.03-.35,1.25-.62,2.52-.94,3.74-.61,2.39-1.63,4.78-1.84,7.24-.04.41.37.6.71.52.16.07.35.08.52,0,.1-.03.2-.08.3-.16,1.04-.85,2.06-1.74,3.08-2.63,1.51-1.17,3.1-2.28,4.69-3.36,2.5,2.22,5.08,4.46,7.94,5.75.52.24,1.32-.03,1.26-.73-.14-1.69-.84-3.45-1.25-5.11-.35-1.43-.7-2.86-1.05-4.29,1.54-.92,3.1-1.83,4.64-2.69.99-.55,2.12-1.37,2.3-2.55.08-.52-.21-1.04-.8-1.05Z"/><path class="cls-1" d="m724.83,399.01c1.65-4.55-5.62-2.59-7.75-2.52-2.34.08-4.73.26-7.12.51-.69-1.06-1.38-2.13-2.02-3.23-1.3-2.24-2.62-4.95-4.49-6.79-.4-.4-1.09-.32-1.38.18-.94,1.61-.73,4.02-1.1,5.81-.37,1.77-.63,3.57-.87,5.38-.8.13-1.6.27-2.4.41-1.05.18-10.71,2.16-7.06,4.94,2.47,1.87,5.12,3.56,7.85,5.15-.21,1.12-.42,2.25-.65,3.36-.48,2.31-1.17,4.68-1.42,7.05-.44,1.06-.79,2.21-.43,2.78.66,1.03,1.75,1.27,2.83.67,3.77-2.11,7.34-4.96,10.71-7.91,2.26,1.11,4.58,2.12,6.82,3.28,1.35.7,3.27,1.91,4.8,1.26.34-.14.54-.67.41-1.01-.93-2.47-2.67-4.66-3.96-6.96-.49-.87-.94-1.75-1.37-2.65,1.58-1.47,3.15-2.95,4.67-4.47,1.35-1.35,3.27-3.42,3.93-5.24Z"/><path class="cls-1" d="m236.39,774.31c2.64-1.29-1.35-3.5-2.31-4.36-1.05-.95-2.17-1.88-3.31-2.78.15-.76.3-1.51.48-2.26.38-1.53.95-3.26.91-4.84,0-.34-.34-.6-.68-.5-1.08.31-2.01,1.44-2.93,2.06-.91.62-1.78,1.29-2.64,1.97-.41-.28-.81-.56-1.21-.83-.53-.36-5.57-3.57-5.15-.83.28,1.85.73,3.71,1.25,5.55-.56.4-1.13.8-1.7,1.19-1.18.8-2.48,1.54-3.59,2.47-.64.27-1.28.63-1.36,1.03-.15.72.23,1.29.95,1.48,2.53.67,5.29.94,7.99,1.07.52,1.44,1.1,2.85,1.58,4.3.29.87.62,2.21,1.56,2.57.21.08.52-.07.6-.27.64-1.46.8-3.15,1.21-4.7.15-.58.33-1.16.52-1.73,1.31.03,2.61.05,3.92.03,1.16-.02,2.87-.11,3.92-.62Z"/><path class="cls-1" d="m131.28,553.57c.48-1.33-1.64-.76-2.26-.74-.68.02-1.38.08-2.08.15-.2-.31-.4-.62-.59-.94-.38-.65-.76-1.44-1.31-1.98-.12-.12-.32-.09-.4.05-.27.47-.21,1.17-.32,1.69-.11.52-.18,1.04-.25,1.57-.23.04-.47.08-.7.12-.31.05-3.12.63-2.06,1.44.72.55,1.49,1.04,2.29,1.5-.06.33-.12.66-.19.98-.14.67-.34,1.36-.41,2.06-.13.31-.23.65-.13.81.19.3.51.37.82.2,1.1-.61,2.14-1.45,3.12-2.31.66.32,1.34.62,1.99.96.39.21.95.56,1.4.37.1-.04.16-.2.12-.29-.27-.72-.78-1.36-1.16-2.03-.14-.25-.27-.51-.4-.77.46-.43.92-.86,1.36-1.3.39-.39.95-1,1.15-1.53Z"/></svg>